<svg width="22" height="19" viewBox="0 0 22 19" fill="none" xmlns="http://www.w3.org/2000/svg">
<path fill-rule="evenodd" clip-rule="evenodd" d="M20.3333 7.21167H15.8627L11.7653 1.07967C11.392 0.529005 10.58 0.529005 10.216 1.07967L6.11867 7.21167H1.66667C1.15334 7.21167 0.733337 7.63167 0.733337 8.145C0.733337 8.229 0.742671 8.31301 0.770671 8.39701L3.14134 17.049C3.356 17.833 4.07467 18.4117 4.93334 18.4117H17.0667C17.9253 18.4117 18.644 17.833 18.868 17.049L21.2387 8.39701L21.2667 8.145C21.2667 7.63167 20.8467 7.21167 20.3333 7.21167ZM10.9907 3.28234L13.6133 7.21167H8.368L10.9907 3.28234ZM11 14.6783C9.97334 14.6783 9.13334 13.8383 9.13334 12.8117C9.13334 11.785 9.97334 10.945 11 10.945C12.0267 10.945 12.8667 11.785 12.8667 12.8117C12.8667 13.8383 12.0267 14.6783 11 14.6783Z" fill="#C3CAD9"/>
</svg>
