<svg width="30" height="31" viewBox="0 0 30 31" fill="none" xmlns="http://www.w3.org/2000/svg">
<path d="M27.6316 20.573C25.781 20.573 23.9684 20.284 22.2505 19.7171C21.4121 19.4282 20.46 19.6508 19.909 20.213L16.5032 22.7851C12.5953 20.6993 10.0942 18.1998 8.03687 14.3203L10.5395 10.9951C11.1695 10.3651 11.3953 9.44293 11.1253 8.57927C10.5537 6.85032 10.2632 5.03611 10.2632 3.18874C10.2632 1.88292 9.20058 0.820312 7.89477 0.820312H2.36842C1.06261 0.820312 0 1.88292 0 3.18874C0 18.424 12.3963 30.8203 27.6316 30.8203C28.9374 30.8203 30 29.7577 30 28.4519V22.9414C30 21.6356 28.9374 20.573 27.6316 20.573Z" fill="white"/>
</svg>
