<svg width="20" height="20" viewBox="0 0 20 20" fill="black" xmlns="http://www.w3.org/2000/svg">
<path fill-rule="evenodd" clip-rule="evenodd" d="M9.99996 0.666672C4.84796 0.666672 0.666626 4.84801 0.666626 10C0.666626 15.152 4.84796 19.3333 9.99996 19.3333C15.152 19.3333 19.3333 15.152 19.3333 10C19.3333 4.84801 15.152 0.666672 9.99996 0.666672ZM13.7333 10.9333H10.9333V13.7333C10.9333 14.2467 10.5133 14.6667 9.99996 14.6667C9.48663 14.6667 9.06663 14.2467 9.06663 13.7333V10.9333H6.26663C5.75329 10.9333 5.33329 10.5133 5.33329 10C5.33329 9.48667 5.75329 9.06667 6.26663 9.06667H9.06663V6.26667C9.06663 5.75334 9.48663 5.33334 9.99996 5.33334C10.5133 5.33334 10.9333 5.75334 10.9333 6.26667V9.06667H13.7333C14.2466 9.06667 14.6666 9.48667 14.6666 10C14.6666 10.5133 14.2466 10.9333 13.7333 10.9333Z" fill="white" fill-opacity="0.5"/>
</svg>
